Coordinates
version=1
nRows=26
nColumns=22
inDegrees=yes

Units are S.I. units (second, meters, Newtons, ...)
If the header above contains a line with 'inDegrees', this indicates whether rotational values are in degrees (yes) or radians (no).

endheader
time	pelvis_tilt	pelvis_list	pelvis_rotation	pelvis_tx	pelvis_ty	pelvis_tz	hip_flexion_r	hip_adduction_r	hip_rotation_r	knee_angle_r	ankle_angle_r	subtalar_angle_r	hip_flexion_l	hip_adduction_l	hip_rotation_l	knee_angle_l	ankle_angle_l	subtalar_angle_l	lumbar_extension	lumbar_bending	lumbar_rotation
      4.56000000	      7.41723378	     10.71617335	     97.18485925	      1.02321260	      0.93277102	     -0.40365008	      4.91523605	      9.36266506	    -13.09286569	    -15.09033688	     -3.53396664	     17.77927735	      3.23094573	    -12.61962331	      6.09265877	    -63.95835575	      9.39717372	     -8.83067927	    -12.11112805	      9.46462091	    -11.33392015
      4.57000000	      7.35269770	     10.87029869	     97.27019227	      1.02572892	      0.93386103	     -0.40901325	      4.29168682	      9.58302381	    -13.02137304	    -14.88811421	     -3.14854489	     17.40708763	      4.03062312	    -12.84246646	      5.60758362	    -64.19369318	     10.50285042	     -9.88374394	    -12.30699528	      9.42340868	    -11.10087596
      4.58000000	      7.29982070	     11.00123665	     97.25685737	      1.02829679	      0.93491204	     -0.41427182	      3.70564411	      9.80373078	    -12.91922010	    -14.69913772	     -2.82402365	     17.07232424	      4.76077573	    -13.07388317	      4.99213283	    -64.22845641	     11.54019331	    -10.66752843	    -12.47898684	      9.38723064	    -10.79048519
      4.59000000	      7.20278156	     11.12368170	     97.20827170	      1.03076596	      0.93594469	     -0.41939210	      3.14164217	      9.95462803	    -12.83003780	    -14.54181843	     -2.47738970	     16.70439756	      5.40749491	    -13.21489299	      4.34788092	    -64.06753750	     12.54986491	    -11.38635204	    -12.64271331	      9.30975182	    -10.48038115
      4.60000000	      7.10475720	     11.23356553	     97.09974242	      1.03321073	      0.93692597	     -0.42435610	      2.60493267	     10.08935734	    -12.70515723	    -14.40032289	     -2.14172915	     16.36000651	      5.98269087	    -13.32786550	      3.65982685	    -63.73047643	     13.47434182	    -11.89089567	    -12.80186085	      9.23130035	    -10.11924677
      4.61000000	      7.00819346	     11.32687103	     96.93646362	      1.03562375	      0.93784432	     -0.42917396	      2.09367720	     10.21325728	    -12.50793661	    -14.26443812	     -1.78073066	     16.06639352	      6.49369865	    -13.41344169	      2.94760460	    -63.23062606	     14.29656697	    -12.21314576	    -12.94856038	      9.15396744	     -9.69012286
      4.62000000	      6.89861707	     11.43665234	     96.76527782	      1.03792533	      0.93875007	     -0.43384357	      1.57372784	     10.30556583	    -12.34566278	    -14.13855703	     -1.43380329	     15.71737424	      6.90835212	    -13.44879501	      2.27159177	    -62.56608308	     15.12900663	    -12.55180035	    -13.11833303	      9.07311890	     -9.26401545
      4.63000000	      6.78986846	     11.54340485	     96.58164263	      1.04013492	      0.93960078	     -0.43836481	      1.06863005	     10.38287261	    -12.18893267	    -14.02044652	     -1.10195527	     15.36677053	      7.25818891	    -13.44923794	      1.63558249	    -61.76410958	     15.93125034	    -12.80384956	    -13.28856588	      8.99923216	     -8.82702418
      4.64000000	      6.67754882	     11.66067363	     96.39467071	      1.04224220	      0.94042528	     -0.44276760	      0.55571352	     10.44475608	    -12.03447231	    -13.89950456	     -0.78904119	     14.98507958	      7.52554921	    -13.41193479	      1.04683354	    -60.83006372	     16.68171360	    -12.96060459	    -13.46806760	      8.92839570	     -8.37600448
      4.65000000	      6.55200980	     11.78929793	     96.22012752	      1.04421517	      0.94123186	     -0.44705222	      0.02915385	     10.48131131	    -11.90376603	    -13.76379512	     -0.52394515	     14.50171068	      7.70951571	    -13.31162348	      0.54066689	    -59.77233896	     17.39465275	    -12.98578635	    -13.66028252	      8.85352358	     -7.94095845
      4.66000000	      6.43926866	     11.90125281	     96.02240555	      1.04614689	      0.94194644	     -0.45125075	     -0.46510717	     10.51922195	    -11.75431053	    -13.64592649	     -0.20648545	     14.09879649	      7.84745954	    -13.21033615	      0.04137684	    -58.62637203	     18.02317835	    -12.78921469	    -13.82947293	      8.79097440	     -7.50307154
      4.67000000	      6.32511382	     12.00835527	     95.82196642	      1.04798885	      0.94260181	     -0.45536258	     -0.95093492	     10.54493386	    -11.60151215	    -13.52532281	      0.12328087	     13.70934740	      7.92969638	    -13.07873721	     -0.40787249	    -57.40257370	     18.59531166	    -12.45758790	    -13.99034769	      8.72959817	     -7.05075884
      4.68000000	      6.21264486	     12.10417691	     95.62417353	      1.04975830	      0.94318399	     -0.45941151	     -1.41343429	     10.56145046	    -11.45555612	    -13.41885120	      0.44803434	     13.32171704	      7.96939373	    -12.94120952	     -0.83518101	    -56.11752456	     19.14333506	    -12.03043202	    -14.12853032	      8.67299233	     -6.63932699
      4.69000000	      6.11662271	     12.18107110	     95.40398602	      1.05148758	      0.94367651	     -0.46337188	     -1.83616335	     10.58121745	    -11.31374795	    -13.33762956	      0.82811862	     13.00791061	      7.98475174	    -12.82313434	     -1.27308677	    -54.80500158	     19.64148653	    -11.61793059	    -14.24744388	      8.63366032	     -6.22137872
      4.70000000	      6.01582114	     12.26403410	     95.20308418	      1.05313129	      0.94415068	     -0.46725073	     -2.26586104	     10.59426620	    -11.15320275	    -13.24305798	      1.16036531	     12.65681439	      7.94891247	    -12.68874207	     -1.65808733	    -53.45426763	     20.11269710	    -11.15503473	    -14.36842873	      8.59160612	     -5.84620449
      4.71000000	      5.92328392	     12.32744499	     95.01592797	      1.05469052	      0.94455734	     -0.47103691	     -2.66448587	     10.60874680	    -10.99009860	    -13.14856958	      1.47266083	     12.31160899	      7.90442612	    -12.55460295	     -2.00190454	    -52.09991797	     20.56854418	    -10.70506409	    -14.46396578	      8.56494565	     -5.52440748
      4.72000000	      5.86344325	     12.35798454	     94.80625459	      1.05622942	      0.94485255	     -0.47472750	     -2.97918074	     10.64002073	    -10.82923497	    -13.13217202	      1.88806806	     12.14983860	      7.87069623	    -12.46602656	     -2.36776404	    -50.77114065	     21.02707414	    -10.45316976	    -14.52358321	      8.56947864	     -5.18763086
      4.73000000	      5.80298681	     12.41188560	     94.60948662	      1.05770120	      0.94518650	     -0.47833858	     -3.32296790	     10.67281411	    -10.64226851	    -13.09325394	      2.23627851	     11.97288769	      7.76939018	    -12.36889741	     -2.69455562	    -49.43401600	     21.47583392	    -10.22149417	    -14.60919988	      8.57540335	     -4.91661452
      4.74000000	      5.77693639	     12.43850993	     94.41341207	      1.05911155	      0.94543031	     -0.48186092	     -3.59500575	     10.72640949	    -10.48038193	    -13.11814576	      2.63913086	     11.88416375	      7.68621698	    -12.31158174	     -3.01299444	    -48.14274044	     21.92257836	    -10.09725780	    -14.65856093	      8.62092630	     -4.63989011
      4.75000000	      5.74393949	     12.49162796	     94.22429456	      1.06046664	      0.94572480	     -0.48531918	     -3.89975762	     10.77374586	    -10.29118514	    -13.12616121	      2.97171144	     11.76334376	      7.53077376	    -12.23934171	     -3.30250835	    -46.85286623	     22.35886894	    -10.01544444	    -14.73686596	      8.65628975	     -4.42724168
      4.76000000	      5.73582111	     12.52292789	     94.03440510	      1.06176473	      0.94594047	     -0.48870039	     -4.14931257	     10.83461806	    -10.13179013	    -13.18171108	      3.34000185	     11.63793063	      7.38695507	    -12.19146416	     -3.57584033	    -45.61734939	     22.77980119	     -9.96570470	    -14.78699560	      8.71648067	     -4.20872942
      4.77000000	      5.70834889	     12.58027285	     93.86580546	      1.06297429	      0.94619802	     -0.49203073	     -4.43874717	     10.87856072	     -9.94640962	    -13.21071645	      3.61498434	     11.35252776	      7.17775720	    -12.11115239	     -3.80869027	    -44.39289426	     23.17728782	     -9.90940875	    -14.85993786	      8.75660720	     -4.06061809
      4.78000000	      5.69628386	     12.62715021	     93.69769815	      1.06413689	      0.94639771	     -0.49528963	     -4.70213603	     10.93002905	     -9.79347911	    -13.25873966	      3.90566031	     10.97622955	      6.96837883	    -12.04629226	     -4.02570402	    -43.22425197	     23.52543964	     -9.81250990	    -14.91813114	      8.80845478	     -3.89863458
      4.79000000	      5.67180532	     12.68017340	     93.54986716	      1.06522350	      0.94659332	     -0.49848057	     -4.98207585	     10.97011309	     -9.63997162	    -13.28140393	      4.13023989	     10.42395303	      6.73113381	    -11.95604819	     -4.20132263	    -42.08905015	     23.82814937	     -9.63189238	    -14.97823629	      8.84560244	     -3.78624076
      4.80000000	      5.63824417	     12.71939930	     93.43647556	      1.06621447	      0.94674565	     -0.50155740	     -5.25145101	     11.00363910	     -9.47399302	    -13.27953262	      4.28654426	      9.67092758	      6.50683308	    -11.83825545	     -4.30727893	    -41.00485505	     24.03500373	     -9.31327058	    -15.02454578	      8.87395555	     -3.75103018
      4.81000000	      5.60614718	     12.74505756	     93.32732342	      1.06714507	      0.94684967	     -0.50454178	     -5.50055199	     11.03055529	     -9.34807931	    -13.27985949	      4.46265486	      8.97759175	      6.28497400	    -11.71200504	     -4.39074639	    -39.97154534	     24.19090015	     -8.90421405	    -15.05775811	      8.89962559	     -3.70471315
